<svg xmlns="http://www.w3.org/2000/svg" xmlns:xlink="http://www.w3.org/1999/xlink" xmlns:s="https://github.com/nturley/netlistsvg" width="732" height="388"><style>svg {
  stroke:#000;
  fill:none;
}
text {
  fill:#000;
  fill-opacity:1.0;
  stroke:none;
  font-size:10px;
  font-weight: bold;
  font-family: "Courier New", monospace;
}
line {
    stroke-linecap: round;
}
.nodelabel {
  text-anchor: middle;
}
.inputPortLabel {
  text-anchor: end;
}
.splitjoinBody {
  fill:#000;
}
.invert {
  fill:#ff9999;
  fill-opacity:1.0;
}
.combinational {
  fill:#afecef;
  fill-opacity:1.0;
}
.state {
  fill:#def1b2;
  fill-opacity:1.0;
}
.hierarchical {
  fill:#ffd8b2;
  fill-opacity:1.0;
}
.io {
  fill:#fcffb2;
  fill-opacity:1.0;
}</style><g s:type="generic" transform="translate(488,22)" s:width="30" s:height="40" class="hierarchical" id="cell_TIM"><text x="15" y="-4" class="nodelabel cell_TIM" s:attribute="ref">timer</text><rect width="30" height="100" s:generic="body" class="cell_TIM"/><g transform="translate(0,10)" s:x="0" s:y="10" s:pid="in0" id="port_TIM~clk"><text x="-3" y="-4" class="inputPortLabel cell_TIM">clk</text></g><g transform="translate(0,30)" s:x="0" s:y="10" s:pid="in0" id="port_TIM~enable"><text x="-3" y="-4" class="inputPortLabel cell_TIM">enable</text></g><g transform="translate(0,50)" s:x="0" s:y="10" s:pid="in0" id="port_TIM~reset"><text x="-3" y="-4" class="inputPortLabel cell_TIM">reset</text></g><g transform="translate(0,70)" s:x="0" s:y="10" s:pid="in0" id="port_TIM~valid"><text x="-3" y="-4" class="inputPortLabel cell_TIM">valid</text></g><g transform="translate(0,90)" s:x="0" s:y="10" s:pid="in0" id="port_TIM~value"><text x="-3" y="-4" class="inputPortLabel cell_TIM">value</text></g><g transform="translate(30,10)" s:x="30" s:y="10" s:pid="out0" id="port_TIM~count"><text x="5" y="-4" style="fill:#000; stroke:none" class="cell_TIM">count</text></g><g transform="translate(30,30)" s:x="30" s:y="10" s:pid="out0" id="port_TIM~trigger"><text x="5" y="-4" style="fill:#000; stroke:none" class="cell_TIM">trigger</text></g></g><g s:type="generic" transform="translate(120,218)" s:width="30" s:height="40" class="hierarchical" id="cell_UPE"><text x="15" y="-4" class="nodelabel cell_UPE" s:attribute="ref">uart_parity_even</text><rect width="30" height="60" s:generic="body" class="cell_UPE"/><g transform="translate(0,10)" s:x="0" s:y="10" s:pid="in0" id="port_UPE~clk"><text x="-3" y="-4" class="inputPortLabel cell_UPE">clk</text></g><g transform="translate(0,30)" s:x="0" s:y="10" s:pid="in0" id="port_UPE~reset"><text x="-3" y="-4" class="inputPortLabel cell_UPE">reset</text></g><g transform="translate(0,50)" s:x="0" s:y="10" s:pid="in0" id="port_UPE~signal"><text x="-3" y="-4" class="inputPortLabel cell_UPE">signal</text></g><g transform="translate(30,10)" s:x="30" s:y="10" s:pid="out0" id="port_UPE~error"><text x="5" y="-4" style="fill:#000; stroke:none" class="cell_UPE">error</text></g><g transform="translate(30,30)" s:x="30" s:y="10" s:pid="out0" id="port_UPE~valid"><text x="5" y="-4" style="fill:#000; stroke:none" class="cell_UPE">valid</text></g></g><g s:type="generic" transform="translate(295,158)" s:width="30" s:height="40" class="hierarchical" id="cell_URF"><text x="15" y="-4" class="nodelabel cell_URF" s:attribute="ref">uart_retrans_fsm</text><rect width="30" height="120" s:generic="body" class="cell_URF"/><g transform="translate(0,10)" s:x="0" s:y="10" s:pid="in0" id="port_URF~ack"><text x="-3" y="-4" class="inputPortLabel cell_URF">ack</text></g><g transform="translate(0,30)" s:x="0" s:y="10" s:pid="in0" id="port_URF~clk"><text x="-3" y="-4" class="inputPortLabel cell_URF">clk</text></g><g transform="translate(0,50)" s:x="0" s:y="10" s:pid="in0" id="port_URF~frame_valid"><text x="-3" y="-4" class="inputPortLabel cell_URF">frame_valid</text></g><g transform="translate(0,70)" s:x="0" s:y="10" s:pid="in0" id="port_URF~parity_error"><text x="-3" y="-4" class="inputPortLabel cell_URF">parity_error</text></g><g transform="translate(0,90)" s:x="0" s:y="10" s:pid="in0" id="port_URF~reset"><text x="-3" y="-4" class="inputPortLabel cell_URF">reset</text></g><g transform="translate(0,110)" s:x="0" s:y="10" s:pid="in0" id="port_URF~timeout"><text x="-3" y="-4" class="inputPortLabel cell_URF">timeout</text></g><g transform="translate(30,10)" s:x="30" s:y="10" s:pid="out0" id="port_URF~error"><text x="5" y="-4" style="fill:#000; stroke:none" class="cell_URF">error</text></g><g transform="translate(30,30)" s:x="30" s:y="10" s:pid="out0" id="port_URF~request_resend"><text x="5" y="-4" style="fill:#000; stroke:none" class="cell_URF">request_resend</text></g><g transform="translate(30,50)" s:x="30" s:y="10" s:pid="out0" id="port_URF~valid"><text x="5" y="-4" style="fill:#000; stroke:none" class="cell_URF">valid</text></g></g><g s:type="inputExt" transform="translate(12,178.5)" s:width="30" s:height="20" class="io" id="cell_clk"><text x="15" y="-4" class="nodelabel cell_clk" s:attribute="ref">clk</text><s:alias val="$_inputExt_"/><path d="M0,0 L0,20 L15,20 L30,10 L15,0 Z" class="cell_clk"/><g s:x="30" s:y="10" s:pid="Y"/></g><g s:type="inputExt" transform="translate(12,281)" s:width="30" s:height="20" class="io" id="cell_reset"><text x="15" y="-4" class="nodelabel cell_reset" s:attribute="ref">reset</text><s:alias val="$_inputExt_"/><path d="M0,0 L0,20 L15,20 L30,10 L15,0 Z" class="cell_reset"/><g s:x="30" s:y="10" s:pid="Y"/></g><g s:type="inputExt" transform="translate(12,346)" s:width="30" s:height="20" class="io" id="cell_signal"><text x="15" y="-4" class="nodelabel cell_signal" s:attribute="ref">signal</text><s:alias val="$_inputExt_"/><path d="M0,0 L0,20 L15,20 L30,10 L15,0 Z" class="cell_signal"/><g s:x="30" s:y="10" s:pid="Y"/></g><g s:type="inputExt" transform="translate(120,158.5)" s:width="30" s:height="20" class="io" id="cell_ack"><text x="15" y="-4" class="nodelabel cell_ack" s:attribute="ref">ack</text><s:alias val="$_inputExt_"/><path d="M0,0 L0,20 L15,20 L30,10 L15,0 Z" class="cell_ack"/><g s:x="30" s:y="10" s:pid="Y"/></g><g s:type="outputExt" transform="translate(636,356)" s:width="30" s:height="20" class="io" id="cell_valid"><text x="15" y="-4" class="nodelabel cell_valid" s:attribute="ref">valid</text><s:alias val="$_outputExt_"/><path d="M30,0 L30,20 L15,20 L0,10 L15,0 Z" class="cell_valid"/><g s:x="0" s:y="10" s:pid="A"/></g><g s:type="outputExt" transform="translate(636,291)" s:width="30" s:height="20" class="io" id="cell_request_resend"><text x="15" y="-4" class="nodelabel cell_request_resend" s:attribute="ref">request_resend</text><s:alias val="$_outputExt_"/><path d="M30,0 L30,20 L15,20 L0,10 L15,0 Z" class="cell_request_resend"/><g s:x="0" s:y="10" s:pid="A"/></g><g s:type="outputExt" transform="translate(636,223.5)" s:width="30" s:height="20" class="io" id="cell_resend_count"><text x="15" y="-4" class="nodelabel cell_resend_count" s:attribute="ref">resend_count</text><s:alias val="$_outputExt_"/><path d="M30,0 L30,20 L15,20 L0,10 L15,0 Z" class="cell_resend_count"/><g s:x="0" s:y="10" s:pid="A"/></g><g s:type="outputExt" transform="translate(636,158.5)" s:width="30" s:height="20" class="io" id="cell_error"><text x="15" y="-4" class="nodelabel cell_error" s:attribute="ref">error</text><s:alias val="$_outputExt_"/><path d="M30,0 L30,20 L15,20 L0,10 L15,0 Z" class="cell_error"/><g s:x="0" s:y="10" s:pid="A"/></g><g s:type="constant" transform="translate(295,42.5)" s:width="30" s:height="20" class="io" id="cell_1"><text x="15" y="-4" class="nodelabel cell_1" s:attribute="ref">1</text><s:alias val="$_constant_"/><rect width="30" height="20" class="cell_1"/><g s:x="31" s:y="10" s:pid="Y"/></g><g s:type="constant" transform="translate(120,93.5)" s:width="30" s:height="20" class="io" id="cell_01000"><text x="15" y="-4" class="nodelabel cell_01000" s:attribute="ref">0x8</text><s:alias val="$_constant_"/><rect width="30" height="20" class="cell_01000"/><g s:x="31" s:y="10" s:pid="Y"/></g><line x1="42" x2="68" y1="188.5" y2="188.5" class="net_2 width_1" style="stroke-width: 1"/><line x1="68" x2="68" y1="188.5" y2="21.5" class="net_2 width_1" style="stroke-width: 1"/><line x1="68" x2="421" y1="21.5" y2="21.5" class="net_2 width_1" style="stroke-width: 1"/><line x1="421" x2="421" y1="21.5" y2="32.5" class="net_2 width_1" style="stroke-width: 1"/><circle cx="68" cy="188.5" r="2" style="fill:#000" class="net_2 width_1"/><line x1="421" x2="488" y1="32.5" y2="32.5" class="net_2 width_1" style="stroke-width: 1"/><line x1="42" x2="68" y1="188.5" y2="188.5" class="net_2 width_1" style="stroke-width: 1"/><line x1="68" x2="68" y1="188.5" y2="228.5" class="net_2 width_1" style="stroke-width: 1"/><line x1="68" x2="120" y1="228.5" y2="228.5" class="net_2 width_1" style="stroke-width: 1"/><line x1="42" x2="295" y1="188.5" y2="188.5" class="net_2 width_1" style="stroke-width: 1"/><line x1="326" x2="488" y1="52.5" y2="52.5" class="net_17 width_1" style="stroke-width: 1"/><line x1="42" x2="58" y1="291" y2="291" class="net_3 width_1" style="stroke-width: 1"/><line x1="58" x2="58" y1="291" y2="72.5" class="net_3 width_1" style="stroke-width: 1"/><circle cx="58" cy="291" r="2" style="fill:#000" class="net_3 width_1"/><line x1="58" x2="488" y1="72.5" y2="72.5" class="net_3 width_1" style="stroke-width: 1"/><line x1="42" x2="58" y1="291" y2="291" class="net_3 width_1" style="stroke-width: 1"/><line x1="58" x2="58" y1="291" y2="248.5" class="net_3 width_1" style="stroke-width: 1"/><circle cx="58" cy="248.5" r="2" style="fill:#000" class="net_3 width_1"/><line x1="58" x2="120" y1="248.5" y2="248.5" class="net_3 width_1" style="stroke-width: 1"/><line x1="42" x2="202" y1="291" y2="291" class="net_3 width_1" style="stroke-width: 1"/><line x1="202" x2="202" y1="291" y2="248.5" class="net_3 width_1" style="stroke-width: 1"/><line x1="202" x2="295" y1="248.5" y2="248.5" class="net_3 width_1" style="stroke-width: 1"/><line x1="326" x2="431" y1="188.5" y2="188.5" class="net_7 width_1" style="stroke-width: 1"/><line x1="431" x2="431" y1="188.5" y2="92.5" class="net_7 width_1" style="stroke-width: 1"/><circle cx="431" cy="188.5" r="2" style="fill:#000" class="net_7 width_1"/><line x1="431" x2="488" y1="92.5" y2="92.5" class="net_7 width_1" style="stroke-width: 1"/><line x1="326" x2="431" y1="188.5" y2="188.5" class="net_7 width_1" style="stroke-width: 1"/><line x1="431" x2="431" y1="188.5" y2="301" class="net_7 width_1" style="stroke-width: 1"/><line x1="431" x2="636" y1="301" y2="301" class="net_7 width_1" style="stroke-width: 1"/><line x1="151" x2="441" y1="103.5" y2="103.5" class="net_18,19,20,21,22 width_5" style="stroke-width: 2"/><line x1="441" x2="441" y1="103.5" y2="112.5" class="net_18,19,20,21,22 width_5" style="stroke-width: 2"/><line x1="441" x2="488" y1="112.5" y2="112.5" class="net_18,19,20,21,22 width_5" style="stroke-width: 2"/><line x1="42" x2="68" y1="356" y2="356" class="net_4 width_1" style="stroke-width: 1"/><line x1="68" x2="68" y1="356" y2="268.5" class="net_4 width_1" style="stroke-width: 1"/><line x1="68" x2="120" y1="268.5" y2="268.5" class="net_4 width_1" style="stroke-width: 1"/><line x1="150" x2="295" y1="168.5" y2="168.5" class="net_5 width_1" style="stroke-width: 1"/><line x1="151" x2="192" y1="248.5" y2="248.5" class="net_16 width_1" style="stroke-width: 1"/><line x1="192" x2="192" y1="248.5" y2="208.5" class="net_16 width_1" style="stroke-width: 1"/><line x1="192" x2="295" y1="208.5" y2="208.5" class="net_16 width_1" style="stroke-width: 1"/><line x1="151" x2="295" y1="228.5" y2="228.5" class="net_15 width_1" style="stroke-width: 1"/><line x1="519" x2="572" y1="52.5" y2="52.5" class="net_14 width_1" style="stroke-width: 1"/><line x1="572" x2="572" y1="52.5" y2="291" class="net_14 width_1" style="stroke-width: 1"/><line x1="572" x2="212" y1="291" y2="291" class="net_14 width_1" style="stroke-width: 1"/><line x1="212" x2="212" y1="291" y2="268.5" class="net_14 width_1" style="stroke-width: 1"/><line x1="212" x2="295" y1="268.5" y2="268.5" class="net_14 width_1" style="stroke-width: 1"/><line x1="326" x2="421" y1="208.5" y2="208.5" class="net_6 width_1" style="stroke-width: 1"/><line x1="421" x2="421" y1="208.5" y2="366" class="net_6 width_1" style="stroke-width: 1"/><line x1="421" x2="636" y1="366" y2="366" class="net_6 width_1" style="stroke-width: 1"/><line x1="519" x2="582" y1="32.5" y2="32.5" class="net_8,9,10,11,12 width_5" style="stroke-width: 2"/><line x1="582" x2="582" y1="32.5" y2="233.5" class="net_8,9,10,11,12 width_5" style="stroke-width: 2"/><line x1="582" x2="636" y1="233.5" y2="233.5" class="net_8,9,10,11,12 width_5" style="stroke-width: 2"/><line x1="326" x2="636" y1="168.5" y2="168.5" class="net_13 width_1" style="stroke-width: 1"/><rect x="315.5" y="98.5" width="16" height="9" class="net_18,19,20,21,22 width_5 busLabel_5" style="fill: white; stroke: none"/><text x="314.5" y="106.5" class="net_18,19,20,21,22 width_5 busLabel_5">/5/</text><rect x="598" y="228.5" width="16" height="9" class="net_8,9,10,11,12 width_5 busLabel_5" style="fill: white; stroke: none"/><text x="597" y="236.5" class="net_8,9,10,11,12 width_5 busLabel_5">/5/</text></svg>
