<svg xmlns="http://www.w3.org/2000/svg" xmlns:xlink="http://www.w3.org/1999/xlink" xmlns:s="https://github.com/nturley/netlistsvg" width="773" height="534.5"><style>svg {
  stroke:#000;
  fill:none;
}
text {
  fill:#000;
  fill-opacity:1.0;
  stroke:none;
  font-size:10px;
  font-weight: bold;
  font-family: "Courier New", monospace;
}
line {
    stroke-linecap: round;
}
.nodelabel {
  text-anchor: middle;
}
.inputPortLabel {
  text-anchor: end;
}
.splitjoinBody {
  fill:#000;
}
.invert {
  fill:#ff9999;
  fill-opacity:1.0;
}
.combinational {
  fill:#afecef;
  fill-opacity:1.0;
}
.state {
  fill:#def1b2;
  fill-opacity:1.0;
}
.hierarchical {
  fill:#ffd8b2;
  fill-opacity:1.0;
}
.io {
  fill:#fcffb2;
  fill-opacity:1.0;
}</style><g s:type="and" transform="translate(285,210.5)" s:width="30" s:height="25" class="combinational" id="cell_$and$timer.v:36$4"><s:alias val="$and"/><s:alias val="$logic_and"/><s:alias val="$_AND_"/><s:alias val="$reduce_and"/><path d="M0,0 L0,25 L15,25 A15 12.5 0 0 0 15,0 Z" class="cell_$and$timer.v:36$4"/><g s:x="0" s:y="5" s:pid="A"/><g s:x="0" s:y="20" s:pid="B"/><g s:x="30" s:y="12.5" s:pid="Y"/></g><g s:type="not" transform="translate(481,467.5)" s:width="30" s:height="20" class="combinational" id="cell_$logic_not$timer.v:41$7"><s:alias val="$_NOT_"/><s:alias val="$not"/><s:alias val="$logic_not"/><path d="M0,0 L0,20 L20,10 Z" class="cell_$logic_not$timer.v:41$7"/><circle cx="24" cy="10" r="3" class="cell_$logic_not$timer.v:41$7 invert"/><g s:x="-1" s:y="10" s:pid="A"/><g s:x="27" s:y="10" s:pid="Y"/></g><g s:type="dff-bus" transform="translate(78,103)" s:width="34" s:height="44" id="cell_$procdff$182"><s:alias val="$dff-bus"/><s:alias val="$_DFF_-bus"/><s:alias val="$_DFF_P_-bus"/><s:alias val="adff-bus"/><s:alias val="$adff-bus"/><s:alias val="$_DFF_-bus"/><s:alias val="$_DFF_P_-bus"/><s:alias val="sdff-bus"/><s:alias val="$sdff-bus"/><s:alias val="$_DFF_-bus"/><s:alias val="$_DFF_P_-bus"/><rect width="30" height="40" x="0" y="0" stroke="none" transform="translate(4,4)" style="filter:brightness(0.7)" class="cell_$procdff$182 state"/><path d="M32,4 L34,4 L34,44 L4,44 L4,42" class="cell_$procdff$182"/><rect width="30" height="40" x="0" y="0" stroke="none" transform="translate(2,2)" style="filter:brightness(0.7)" class="cell_$procdff$182 state"/><path d="M30,2 L32,2 L32,42 L2,42 L2,40" class="cell_$procdff$182"/><rect width="30" height="40" x="0" y="0" class="cell_$procdff$182 state"/><path d="M0,35 L5,30 L0,25 Z" class="cell_$procdff$182" style="fill:#ffffff"/><g s:x="35" s:y="10" s:pid="Q"/><g s:x="-1" s:y="30" s:pid="CLK"/><g s:x="-1" s:y="30" s:pid="C"/><g s:x="-1" s:y="10" s:pid="D"/><g s:x="17" s:y="44" s:pid="ARST"/><g s:x="17" s:y="44" s:pid="SRST"/></g><g s:type="mux-bus" transform="translate(352.3333333333333,57)" s:width="24" s:height="40" class="combinational" id="cell_$procmux$169"><s:alias val="$pmux-bus"/><s:alias val="$mux-bus"/><s:alias val="$_MUX_-bus"/><path d="M8,2 L8,0 L24,8 L24,32 L8,40 L8,38" style="filter:brightness(0.7)" class="cell_$procmux$169"/><path d="M4,2 L4,0 L22,9 L22,31 L4,40 L4,38" style="filter:brightness(0.7)" class="cell_$procmux$169"/><path d="M0,0 L20,10 L20,30 L0,40 Z" class="cell_$procmux$169"/><text x="5" y="32" class="nodelabel cell_$procmux$169" s:attribute="">1</text><text x="5" y="13" class="nodelabel cell_$procmux$169" s:attribute="">0</text><g s:x="-1" s:y="10" s:pid="A"/><g s:x="-1" s:y="30" s:pid="B"/><g s:x="12" s:y="38" s:pid="S"/><g s:x="24.5" s:y="20" s:pid="Y"/></g><g s:type="mux-bus" transform="translate(482.6666666666667,67)" s:width="24" s:height="40" class="combinational" id="cell_$procmux$175"><s:alias val="$pmux-bus"/><s:alias val="$mux-bus"/><s:alias val="$_MUX_-bus"/><path d="M8,2 L8,0 L24,8 L24,32 L8,40 L8,38" style="filter:brightness(0.7)" class="cell_$procmux$175"/><path d="M4,2 L4,0 L22,9 L22,31 L4,40 L4,38" style="filter:brightness(0.7)" class="cell_$procmux$175"/><path d="M0,0 L20,10 L20,30 L0,40 Z" class="cell_$procmux$175"/><text x="5" y="32" class="nodelabel cell_$procmux$175" s:attribute="">1</text><text x="5" y="13" class="nodelabel cell_$procmux$175" s:attribute="">0</text><g s:x="-1" s:y="10" s:pid="A"/><g s:x="-1" s:y="30" s:pid="B"/><g s:x="12" s:y="38" s:pid="S"/><g s:x="24.5" s:y="20" s:pid="Y"/></g><g s:type="mux-bus" transform="translate(710,77)" s:width="24" s:height="40" class="combinational" id="cell_$procmux$178"><s:alias val="$pmux-bus"/><s:alias val="$mux-bus"/><s:alias val="$_MUX_-bus"/><path d="M8,2 L8,0 L24,8 L24,32 L8,40 L8,38" style="filter:brightness(0.7)" class="cell_$procmux$178"/><path d="M4,2 L4,0 L22,9 L22,31 L4,40 L4,38" style="filter:brightness(0.7)" class="cell_$procmux$178"/><path d="M0,0 L20,10 L20,30 L0,40 Z" class="cell_$procmux$178"/><text x="5" y="32" class="nodelabel cell_$procmux$178" s:attribute="">1</text><text x="5" y="13" class="nodelabel cell_$procmux$178" s:attribute="">0</text><g s:x="-1" s:y="10" s:pid="A"/><g s:x="-1" s:y="30" s:pid="B"/><g s:x="12" s:y="38" s:pid="S"/><g s:x="24.5" s:y="20" s:pid="Y"/></g><g s:type="or" transform="translate(217,218)" s:width="30" s:height="25" class="combinational" id="cell_$reduce_or$timer.v:41$6"><s:alias val="$or"/><s:alias val="$logic_or"/><s:alias val="$_OR_"/><s:alias val="$reduce_or"/><s:alias val="$reduce_bool"/><path d="M0,25 L0,25 L15,25 A15 12.5 0 0 0 15,0 L0,0 A30 25 0 0 1 0,25 Z" class="cell_$reduce_or$timer.v:41$6"/><g s:x="2" s:y="5" s:pid="A"/><g s:x="2" s:y="20" s:pid="B"/><g s:x="30" s:y="12.5" s:pid="Y"/></g><g s:type="sub" transform="translate(217.66666666666666,108)" s:width="25" s:height="25" class="hierarchical" id="cell_$sub$timer.v:37$5"><s:alias val="$sub"/><circle r="12.5" cx="12.5" cy="12.5" class="cell_$sub$timer.v:37$5"/><line x1="7.5" x2="17.5" y1="12.5" y2="12.5" class="cell_$sub$timer.v:37$5"/><g s:x="2" s:y="5" s:pid="A"/><g s:x="2" s:y="20" s:pid="B"/><g s:x="25" s:y="12.5" s:pid="Y"/></g><g s:type="generic" transform="translate(600,381)" s:width="30" s:height="40" class="hierarchical" id="cell_FSM"><text x="15" y="-4" class="nodelabel cell_FSM" s:attribute="ref">timer_fsm</text><rect width="30" height="80" s:generic="body" class="cell_FSM"/><g transform="translate(0,10)" s:x="0" s:y="10" s:pid="in0" id="port_FSM~clk"><text x="-3" y="-4" class="inputPortLabel cell_FSM">clk</text></g><g transform="translate(0,30)" s:x="0" s:y="10" s:pid="in0" id="port_FSM~complete"><text x="-3" y="-4" class="inputPortLabel cell_FSM">complete</text></g><g transform="translate(0,50)" s:x="0" s:y="10" s:pid="in0" id="port_FSM~enable"><text x="-3" y="-4" class="inputPortLabel cell_FSM">enable</text></g><g transform="translate(0,70)" s:x="0" s:y="10" s:pid="in0" id="port_FSM~reset"><text x="-3" y="-4" class="inputPortLabel cell_FSM">reset</text></g><g transform="translate(30,10)" s:x="30" s:y="10" s:pid="out0" id="port_FSM~trigger"><text x="5" y="-4" style="fill:#000; stroke:none" class="cell_FSM">trigger</text></g></g><g s:type="inputExt" transform="translate(12,123)" s:width="30" s:height="20" class="io" id="cell_clk"><text x="15" y="-4" class="nodelabel cell_clk" s:attribute="ref">clk</text><s:alias val="$_inputExt_"/><path d="M0,0 L0,20 L15,20 L30,10 L15,0 Z" class="cell_clk"/><g s:x="30" s:y="10" s:pid="Y"/></g><g s:type="inputExt" transform="translate(480,412.5)" s:width="30" s:height="20" class="io" id="cell_reset"><text x="15" y="-4" class="nodelabel cell_reset" s:attribute="ref">reset</text><s:alias val="$_inputExt_"/><path d="M0,0 L0,20 L15,20 L30,10 L15,0 Z" class="cell_reset"/><g s:x="30" s:y="10" s:pid="Y"/></g><g s:type="inputExt" transform="translate(350,243)" s:width="30" s:height="20" class="io" id="cell_value"><text x="15" y="-4" class="nodelabel cell_value" s:attribute="ref">value</text><s:alias val="$_inputExt_"/><path d="M0,0 L0,20 L15,20 L30,10 L15,0 Z" class="cell_value"/><g s:x="30" s:y="10" s:pid="Y"/></g><g s:type="inputExt" transform="translate(415,304)" s:width="30" s:height="20" class="io" id="cell_valid"><text x="15" y="-4" class="nodelabel cell_valid" s:attribute="ref">valid</text><s:alias val="$_inputExt_"/><path d="M0,0 L0,20 L15,20 L30,10 L15,0 Z" class="cell_valid"/><g s:x="30" s:y="10" s:pid="Y"/></g><g s:type="inputExt" transform="translate(214,288)" s:width="30" s:height="20" class="io" id="cell_enable"><text x="15" y="-4" class="nodelabel cell_enable" s:attribute="ref">enable</text><s:alias val="$_inputExt_"/><path d="M0,0 L0,20 L15,20 L30,10 L15,0 Z" class="cell_enable"/><g s:x="30" s:y="10" s:pid="Y"/></g><g s:type="outputExt" transform="translate(710,502.5)" s:width="30" s:height="20" class="io" id="cell_count"><text x="15" y="-4" class="nodelabel cell_count" s:attribute="ref">count</text><s:alias val="$_outputExt_"/><path d="M30,0 L30,20 L15,20 L0,10 L15,0 Z" class="cell_count"/><g s:x="0" s:y="10" s:pid="A"/></g><g s:type="outputExt" transform="translate(709,381.5)" s:width="30" s:height="20" class="io" id="cell_trigger"><text x="15" y="-4" class="nodelabel cell_trigger" s:attribute="ref">trigger</text><s:alias val="$_outputExt_"/><path d="M30,0 L30,20 L15,20 L0,10 L15,0 Z" class="cell_trigger"/><g s:x="0" s:y="10" s:pid="A"/></g><g s:type="constant" transform="translate(480,334)" s:width="30" s:height="20" class="io" id="cell_00000"><text x="15" y="-4" class="nodelabel cell_00000" s:attribute="ref">0x0</text><s:alias val="$_constant_"/><rect width="30" height="20" class="cell_00000"/><g s:x="31" s:y="10" s:pid="Y"/></g><g s:type="constant" transform="translate(148,164)" s:width="30" s:height="20" class="io" id="cell_1"><text x="15" y="-4" class="nodelabel cell_1" s:attribute="ref">1</text><s:alias val="$_constant_"/><rect width="30" height="20" class="cell_1"/><g s:x="31" s:y="10" s:pid="Y"/></g><line x1="244" x2="260" y1="298" y2="298" class="net_10 width_1" style="stroke-width: 1"/><line x1="260" x2="260" y1="298" y2="215.5" class="net_10 width_1" style="stroke-width: 1"/><circle cx="260" cy="298" r="2" style="fill:#000" class="net_10 width_1"/><line x1="260" x2="285" y1="215.5" y2="215.5" class="net_10 width_1" style="stroke-width: 1"/><line x1="244" x2="260" y1="298" y2="298" class="net_10 width_1" style="stroke-width: 1"/><line x1="260" x2="260" y1="298" y2="497.5" class="net_10 width_1" style="stroke-width: 1"/><line x1="260" x2="541" y1="497.5" y2="497.5" class="net_10 width_1" style="stroke-width: 1"/><line x1="541" x2="541" y1="497.5" y2="431.5" class="net_10 width_1" style="stroke-width: 1"/><line x1="541" x2="600" y1="431.5" y2="431.5" class="net_10 width_1" style="stroke-width: 1"/><line x1="247" x2="285" y1="230.5" y2="230.5" class="net_17 width_1" style="stroke-width: 1"/><line x1="247" x2="270" y1="230.5" y2="230.5" class="net_17 width_1" style="stroke-width: 1"/><line x1="270" x2="270" y1="230.5" y2="477.5" class="net_17 width_1" style="stroke-width: 1"/><circle cx="270" cy="230.5" r="2" style="fill:#000" class="net_17 width_1"/><line x1="270" x2="480" y1="477.5" y2="477.5" class="net_17 width_1" style="stroke-width: 1"/><line x1="42" x2="77" y1="133" y2="133" class="net_2 width_1" style="stroke-width: 1"/><line x1="42" x2="52" y1="133" y2="133" class="net_2 width_1" style="stroke-width: 1"/><line x1="52" x2="52" y1="133" y2="391.5" class="net_2 width_1" style="stroke-width: 1"/><circle cx="52" cy="133" r="2" style="fill:#000" class="net_2 width_1"/><line x1="52" x2="600" y1="391.5" y2="391.5" class="net_2 width_1" style="stroke-width: 1"/><line x1="734.5" x2="761" y1="97" y2="97" class="net_20,21,22,23,24 width_5" style="stroke-width: 2"/><line x1="761" x2="761" y1="97" y2="16" class="net_20,21,22,23,24 width_5" style="stroke-width: 2"/><line x1="761" x2="52" y1="16" y2="16" class="net_20,21,22,23,24 width_5" style="stroke-width: 2"/><line x1="52" x2="52" y1="16" y2="113" class="net_20,21,22,23,24 width_5" style="stroke-width: 2"/><line x1="52" x2="77" y1="113" y2="113" class="net_20,21,22,23,24 width_5" style="stroke-width: 2"/><line x1="113" x2="123" y1="113" y2="113" class="net_11,12,13,14,15 width_5" style="stroke-width: 2"/><line x1="123" x2="123" y1="113" y2="67" class="net_11,12,13,14,15 width_5" style="stroke-width: 2"/><circle cx="123" cy="113" r="3" style="fill:#000" class="net_11,12,13,14,15 width_5"/><line x1="123" x2="351.3333333333333" y1="67" y2="67" class="net_11,12,13,14,15 width_5" style="stroke-width: 2"/><line x1="113" x2="123" y1="113" y2="113" class="net_11,12,13,14,15 width_5" style="stroke-width: 2"/><line x1="123" x2="123" y1="113" y2="223" class="net_11,12,13,14,15 width_5" style="stroke-width: 2"/><circle cx="123" cy="223" r="3" style="fill:#000" class="net_11,12,13,14,15 width_5"/><line x1="123" x2="219" y1="223" y2="223" class="net_11,12,13,14,15 width_5" style="stroke-width: 2"/><line x1="113" x2="219.66666666666666" y1="113" y2="113" class="net_11,12,13,14,15 width_5" style="stroke-width: 2"/><line x1="113" x2="123" y1="113" y2="113" class="net_11,12,13,14,15 width_5" style="stroke-width: 2"/><line x1="123" x2="123" y1="113" y2="512.5" class="net_11,12,13,14,15 width_5" style="stroke-width: 2"/><line x1="123" x2="710" y1="512.5" y2="512.5" class="net_11,12,13,14,15 width_5" style="stroke-width: 2"/><line x1="242.66666666666666" x2="325" y1="120.5" y2="120.5" class="net_25,26,27,28,29 width_5" style="stroke-width: 2"/><line x1="325" x2="325" y1="120.5" y2="87" class="net_25,26,27,28,29 width_5" style="stroke-width: 2"/><line x1="325" x2="351.3333333333333" y1="87" y2="87" class="net_25,26,27,28,29 width_5" style="stroke-width: 2"/><line x1="315" x2="364.3333333333333" y1="223" y2="223" class="net_18 width_1" style="stroke-width: 1"/><line x1="364.3333333333333" x2="364.3333333333333" y1="223" y2="95" class="net_18 width_1" style="stroke-width: 1"/><line x1="376.8333333333333" x2="481.6666666666667" y1="77" y2="77" class="net_30,31,32,33,34 width_5" style="stroke-width: 2"/><line x1="380" x2="455" y1="253" y2="253" class="net_4,5,6,7,8 width_5" style="stroke-width: 2"/><line x1="455" x2="455" y1="253" y2="97" class="net_4,5,6,7,8 width_5" style="stroke-width: 2"/><line x1="455" x2="481.6666666666667" y1="97" y2="97" class="net_4,5,6,7,8 width_5" style="stroke-width: 2"/><line x1="445" x2="494.6666666666667" y1="314" y2="314" class="net_9 width_1" style="stroke-width: 1"/><line x1="494.6666666666667" x2="494.6666666666667" y1="314" y2="105" class="net_9 width_1" style="stroke-width: 1"/><line x1="507.1666666666667" x2="709" y1="87" y2="87" class="net_35,36,37,38,39 width_5" style="stroke-width: 2"/><line x1="511" x2="684" y1="344" y2="344" class="net_40,41,42,43,44 width_5" style="stroke-width: 2"/><line x1="684" x2="684" y1="344" y2="107" class="net_40,41,42,43,44 width_5" style="stroke-width: 2"/><line x1="684" x2="709" y1="107" y2="107" class="net_40,41,42,43,44 width_5" style="stroke-width: 2"/><line x1="510" x2="521" y1="422.5" y2="422.5" class="net_3 width_1" style="stroke-width: 1"/><line x1="521" x2="521" y1="422.5" y2="360" class="net_3 width_1" style="stroke-width: 1"/><line x1="521" x2="722" y1="360" y2="360" class="net_3 width_1" style="stroke-width: 1"/><circle cx="521" cy="422.5" r="2" style="fill:#000" class="net_3 width_1"/><line x1="722" x2="722" y1="360" y2="115" class="net_3 width_1" style="stroke-width: 1"/><line x1="510" x2="521" y1="422.5" y2="422.5" class="net_3 width_1" style="stroke-width: 1"/><line x1="521" x2="521" y1="422.5" y2="451.5" class="net_3 width_1" style="stroke-width: 1"/><line x1="521" x2="600" y1="451.5" y2="451.5" class="net_3 width_1" style="stroke-width: 1"/><line x1="179" x2="189" y1="174" y2="174" class="net_45 width_1" style="stroke-width: 1"/><line x1="189" x2="189" y1="174" y2="128" class="net_45 width_1" style="stroke-width: 1"/><line x1="189" x2="219.66666666666666" y1="128" y2="128" class="net_45 width_1" style="stroke-width: 1"/><line x1="508" x2="531" y1="477.5" y2="477.5" class="net_19 width_1" style="stroke-width: 1"/><line x1="531" x2="531" y1="477.5" y2="411.5" class="net_19 width_1" style="stroke-width: 1"/><line x1="531" x2="600" y1="411.5" y2="411.5" class="net_19 width_1" style="stroke-width: 1"/><line x1="631" x2="709" y1="391.5" y2="391.5" class="net_16 width_1" style="stroke-width: 1"/><rect x="364" y="11" width="16" height="9" class="net_20,21,22,23,24 width_5 busLabel_5" style="fill: white; stroke: none"/><text x="363" y="19" class="net_20,21,22,23,24 width_5 busLabel_5">/5/</text><rect x="364" y="507.5" width="16" height="9" class="net_11,12,13,14,15 width_5 busLabel_5" style="fill: white; stroke: none"/><text x="363" y="515.5" class="net_11,12,13,14,15 width_5 busLabel_5">/5/</text><rect x="364" y="507.5" width="16" height="9" class="net_11,12,13,14,15 width_5 busLabel_5" style="fill: white; stroke: none"/><text x="363" y="515.5" class="net_11,12,13,14,15 width_5 busLabel_5">/5/</text><rect x="364" y="507.5" width="16" height="9" class="net_11,12,13,14,15 width_5 busLabel_5" style="fill: white; stroke: none"/><text x="363" y="515.5" class="net_11,12,13,14,15 width_5 busLabel_5">/5/</text><rect x="364" y="507.5" width="16" height="9" class="net_11,12,13,14,15 width_5 busLabel_5" style="fill: white; stroke: none"/><text x="363" y="515.5" class="net_11,12,13,14,15 width_5 busLabel_5">/5/</text><rect x="299" y="115.5" width="16" height="9" class="net_25,26,27,28,29 width_5 busLabel_5" style="fill: white; stroke: none"/><text x="298" y="123.5" class="net_25,26,27,28,29 width_5 busLabel_5">/5/</text><rect x="429" y="72" width="16" height="9" class="net_30,31,32,33,34 width_5 busLabel_5" style="fill: white; stroke: none"/><text x="428" y="80" class="net_30,31,32,33,34 width_5 busLabel_5">/5/</text><rect x="429" y="248" width="16" height="9" class="net_4,5,6,7,8 width_5 busLabel_5" style="fill: white; stroke: none"/><text x="428" y="256" class="net_4,5,6,7,8 width_5 busLabel_5">/5/</text><rect x="611.5" y="82" width="16" height="9" class="net_35,36,37,38,39 width_5 busLabel_5" style="fill: white; stroke: none"/><text x="610.5" y="90" class="net_35,36,37,38,39 width_5 busLabel_5">/5/</text><rect x="611.5" y="339" width="16" height="9" class="net_40,41,42,43,44 width_5 busLabel_5" style="fill: white; stroke: none"/><text x="610.5" y="347" class="net_40,41,42,43,44 width_5 busLabel_5">/5/</text></svg>