<?xml version="1.0" encoding="UTF-8" standalone="no"?>
<!DOCTYPE svg PUBLIC "-//W3C//DTD SVG 1.1//EN"
 "http://www.w3.org/Graphics/SVG/1.1/DTD/svg11.dtd">
<!-- Generated by graphviz version 2.43.20190912.0211 (20190912.0211)
 -->
<!-- Title: timer_fsm Pages: 1 -->
<svg width="975pt" height="685pt"
 viewBox="0.00 0.00 974.79 685.12" xmlns="http://www.w3.org/2000/svg" xmlns:xlink="http://www.w3.org/1999/xlink">
<g id="graph0" class="graph" transform="scale(1 1) rotate(0) translate(4 681.12)">
<title>timer_fsm</title>
<polygon fill="white" stroke="transparent" points="-4,4 -4,-681.12 970.79,-681.12 970.79,4 -4,4"/>
<!-- reset -->
<g id="node1" class="node">
<title>reset</title>
<ellipse fill="black" stroke="black" cx="557.79" cy="-675.32" rx="1.8" ry="1.8"/>
</g>
<!-- idle -->
<g id="node2" class="node">
<title>idle</title>
<ellipse fill="none" stroke="black" cx="557.79" cy="-563.83" rx="58.88" ry="58.88"/>
<text text-anchor="middle" x="557.79" y="-575.63" font-family="Times,serif" font-size="14.00">idle</text>
<text text-anchor="middle" x="557.79" y="-544.63" font-family="Times,serif" font-size="14.00">trigger=1&#39;b0</text>
</g>
<!-- reset&#45;&gt;idle -->
<g id="edge1" class="edge">
<title>reset&#45;&gt;idle</title>
<path fill="none" stroke="black" d="M557.79,-673.09C557.79,-668.51 557.79,-651.71 557.79,-632.67"/>
<polygon fill="black" stroke="black" points="561.29,-632.56 557.79,-622.56 554.29,-632.56 561.29,-632.56"/>
<text text-anchor="middle" x="586.29" y="-644.32" font-family="Times,serif" font-size="14.00">reset=1&#39;b0</text>
</g>
<!-- counting -->
<g id="node3" class="node">
<title>counting</title>
<ellipse fill="none" stroke="black" cx="217.79" cy="-395.45" rx="58.88" ry="58.88"/>
<text text-anchor="middle" x="217.79" y="-407.25" font-family="Times,serif" font-size="14.00">counting</text>
<text text-anchor="middle" x="217.79" y="-376.25" font-family="Times,serif" font-size="14.00">trigger=1&#39;b0</text>
</g>
<!-- idle&#45;&gt;counting -->
<g id="edge2" class="edge">
<title>idle&#45;&gt;counting</title>
<path fill="none" stroke="black" d="M503.68,-540.41C470.98,-526.28 428.81,-507 392.79,-487.14 382.11,-481.25 380.39,-478.2 369.79,-472.14 340.95,-455.62 308.02,-438.97 280.21,-425.51"/>
<polygon fill="black" stroke="black" points="281.52,-422.26 270.99,-421.07 278.48,-428.56 281.52,-422.26"/>
<text text-anchor="middle" x="468.29" y="-475.94" font-family="Times,serif" font-size="14.00">enable=1&#39;b1 complete=1&#39;b0</text>
</g>
<!-- paused -->
<g id="node4" class="node">
<title>paused</title>
<ellipse fill="none" stroke="black" cx="369.79" cy="-58.69" rx="58.88" ry="58.88"/>
<text text-anchor="middle" x="369.79" y="-70.49" font-family="Times,serif" font-size="14.00">paused</text>
<text text-anchor="middle" x="369.79" y="-39.49" font-family="Times,serif" font-size="14.00">trigger=1&#39;b0</text>
</g>
<!-- idle&#45;&gt;paused -->
<g id="edge3" class="edge">
<title>idle&#45;&gt;paused</title>
<path fill="none" stroke="black" d="M602.75,-525.86C622.42,-506.76 643.37,-481.69 653.79,-454.14 679.3,-386.72 643.83,-187.26 593.79,-135.38 553.01,-93.09 487.8,-74.42 438.23,-66.19"/>
<polygon fill="black" stroke="black" points="438.65,-62.71 428.23,-64.63 437.57,-69.63 438.65,-62.71"/>
<text text-anchor="middle" x="731.29" y="-307.56" font-family="Times,serif" font-size="14.00">enable=1&#39;b0 complete=1&#39;b0</text>
</g>
<!-- counting&#45;&gt;idle -->
<g id="edge6" class="edge">
<title>counting&#45;&gt;idle</title>
<path fill="none" stroke="black" d="M204.3,-452.65C204.3,-465.09 207,-477.44 214.79,-487.14 248.54,-529.14 399.1,-549.22 489.15,-557.63"/>
<polygon fill="black" stroke="black" points="489,-561.13 499.28,-558.55 489.64,-554.16 489,-561.13"/>
<text text-anchor="middle" x="290.29" y="-475.94" font-family="Times,serif" font-size="14.00">enable=1&#39;b0 complete=1&#39;b1</text>
</g>
<!-- counting&#45;&gt;paused -->
<g id="edge4" class="edge">
<title>counting&#45;&gt;paused</title>
<path fill="none" stroke="black" d="M195.46,-341.13C178.98,-292.95 164.09,-221.64 193.79,-168.38 217.36,-126.13 264.85,-98.25 304.57,-81.32"/>
<polygon fill="black" stroke="black" points="306.04,-84.5 313.96,-77.45 303.38,-78.02 306.04,-84.5"/>
<text text-anchor="middle" x="269.29" y="-223.37" font-family="Times,serif" font-size="14.00">enable=1&#39;b0 complete=1&#39;b0</text>
</g>
<!-- done -->
<g id="node5" class="node">
<title>done</title>
<ellipse fill="none" stroke="black" cx="412.79" cy="-227.07" rx="58.88" ry="58.88"/>
<text text-anchor="middle" x="412.79" y="-238.87" font-family="Times,serif" font-size="14.00">done</text>
<text text-anchor="middle" x="412.79" y="-207.87" font-family="Times,serif" font-size="14.00">trigger=1&#39;b1</text>
</g>
<!-- counting&#45;&gt;done -->
<g id="edge5" class="edge">
<title>counting&#45;&gt;done</title>
<path fill="none" stroke="black" d="M206.84,-337.78C207.39,-325.36 210.62,-313.14 218.79,-303.76 236.66,-283.27 314.84,-296.55 339.79,-285.76 347.2,-282.56 354.49,-278.41 361.43,-273.81"/>
<polygon fill="black" stroke="black" points="363.85,-276.39 370.02,-267.78 359.82,-270.66 363.85,-276.39"/>
<text text-anchor="middle" x="294.29" y="-307.56" font-family="Times,serif" font-size="14.00">enable=1&#39;b1 complete=1&#39;b1</text>
</g>
<!-- paused&#45;&gt;idle -->
<g id="edge9" class="edge">
<title>paused&#45;&gt;idle</title>
<path fill="none" stroke="black" d="M427.49,-69.65C530.25,-91.02 740.75,-152.25 810.79,-303.76 858.76,-407.51 710.98,-494.57 621.3,-536.31"/>
<polygon fill="black" stroke="black" points="619.64,-533.22 612.01,-540.57 622.56,-539.58 619.64,-533.22"/>
<text text-anchor="middle" x="891.29" y="-307.56" font-family="Times,serif" font-size="14.00">enable=1&#39;b0 complete=1&#39;b1</text>
</g>
<!-- paused&#45;&gt;counting -->
<g id="edge7" class="edge">
<title>paused&#45;&gt;counting</title>
<path fill="none" stroke="black" d="M311.98,-69.31C222.32,-85.55 56.43,-121.27 21.79,-168.38 -9.11,-210.41 -4.68,-240.81 21.79,-285.76 49.57,-332.93 106.01,-361.08 151.22,-376.87"/>
<polygon fill="black" stroke="black" points="150.38,-380.28 160.97,-380.14 152.61,-373.64 150.38,-380.28"/>
<text text-anchor="middle" x="97.29" y="-223.37" font-family="Times,serif" font-size="14.00">enable=1&#39;b1 complete=1&#39;b0</text>
</g>
<!-- paused&#45;&gt;done -->
<g id="edge8" class="edge">
<title>paused&#45;&gt;done</title>
<path fill="none" stroke="black" d="M412.56,-99C421.62,-109.82 429.92,-122.22 434.79,-135.38 438.06,-144.19 438.71,-153.67 437.78,-163.06"/>
<polygon fill="black" stroke="black" points="434.28,-162.75 436.18,-173.17 441.2,-163.84 434.28,-162.75"/>
<text text-anchor="middle" x="514.29" y="-139.18" font-family="Times,serif" font-size="14.00">enable=1&#39;b1 complete=1&#39;b1</text>
</g>
<!-- done&#45;&gt;idle -->
<g id="edge12" class="edge">
<title>done&#45;&gt;idle</title>
<path fill="none" stroke="black" d="M467.8,-247.94C493.16,-260.05 521.06,-278.2 536.79,-303.76 572.2,-361.28 573.38,-440.1 568.26,-495.66"/>
<polygon fill="black" stroke="black" points="564.76,-495.45 567.23,-505.75 571.73,-496.15 564.76,-495.45"/>
<text text-anchor="middle" x="610.79" y="-391.75" font-family="Times,serif" font-size="14.00">complete=1&#39;b1</text>
</g>
<!-- done&#45;&gt;counting -->
<g id="edge10" class="edge">
<title>done&#45;&gt;counting</title>
<path fill="none" stroke="black" d="M393.84,-283.14C387.61,-295.9 379.68,-308.68 369.79,-318.76 345.86,-343.16 312.42,-360.99 283,-373.19"/>
<polygon fill="black" stroke="black" points="281.59,-369.98 273.61,-376.95 284.19,-376.48 281.59,-369.98"/>
<text text-anchor="middle" x="457.29" y="-307.56" font-family="Times,serif" font-size="14.00">enable=1&#39;b1 complete=1&#39;b0</text>
</g>
<!-- done&#45;&gt;paused -->
<g id="edge11" class="edge">
<title>done&#45;&gt;paused</title>
<path fill="none" stroke="black" d="M369.07,-187.23C359.83,-180.28 349.82,-173.6 339.79,-168.38 315.1,-155.52 296.41,-172.72 279.79,-150.38 263.61,-128.63 283.38,-106.99 308.47,-90.3"/>
<polygon fill="black" stroke="black" points="310.54,-93.13 317.14,-84.84 306.81,-87.21 310.54,-93.13"/>
<text text-anchor="middle" x="355.29" y="-139.18" font-family="Times,serif" font-size="14.00">enable=1&#39;b0 complete=1&#39;b0</text>
</g>
</g>
</svg>
