<?xml version="1.0" encoding="UTF-8" standalone="no"?>
<!DOCTYPE svg PUBLIC "-//W3C//DTD SVG 1.1//EN"
 "http://www.w3.org/Graphics/SVG/1.1/DTD/svg11.dtd">
<!-- Generated by graphviz version 2.40.1 (20161225.0304)
 -->
<!-- Title: uart_retrans_fsm Pages: 1 -->
<svg width="1370pt" height="604pt"
 viewBox="0.00 0.00 1370.36 603.88" xmlns="http://www.w3.org/2000/svg" xmlns:xlink="http://www.w3.org/1999/xlink">
<g id="graph0" class="graph" transform="scale(1 1) rotate(0) translate(4 599.8771)">
<title>uart_retrans_fsm</title>
<polygon fill="#ffffff" stroke="transparent" points="-4,4 -4,-599.8771 1366.3572,-599.8771 1366.3572,4 -4,4"/>
<!-- reset -->
<g id="node1" class="node">
<title>reset</title>
<ellipse fill="#000000" stroke="#000000" cx="318.61" cy="-594.0771" rx="1.8" ry="1.8"/>
</g>
<!-- wait -->
<g id="node2" class="node">
<title>wait</title>
<ellipse fill="none" stroke="#000000" cx="318.61" cy="-511.8152" rx="27.8248" ry="27.8248"/>
<text text-anchor="middle" x="318.61" y="-507.6152" font-family="Times,serif" font-size="14.00" fill="#000000">wait</text>
</g>
<!-- reset&#45;&gt;wait -->
<g id="edge1" class="edge">
<title>reset&#45;&gt;wait</title>
<path fill="none" stroke="#000000" d="M318.61,-592.0437C318.61,-586.0044 318.61,-567.4887 318.61,-549.7654"/>
<polygon fill="#000000" stroke="#000000" points="322.1101,-549.522 318.61,-539.522 315.1101,-549.522 322.1101,-549.522"/>
<text text-anchor="middle" x="482.1146" y="-561.6771" font-family="Times,serif" font-size="14.00" fill="#000000">[reset=1&#39;b0 / valid=1&#39;b0 request_resend=1&#39;b0 error=1&#39;b0]</text>
</g>
<!-- wait_resend1 -->
<g id="node3" class="node">
<title>wait_resend1</title>
<ellipse fill="none" stroke="#000000" cx="477.61" cy="-368.8337" rx="62.5392" ry="62.5392"/>
<text text-anchor="middle" x="477.61" y="-364.6337" font-family="Times,serif" font-size="14.00" fill="#000000">wait_resend1</text>
</g>
<!-- wait&#45;&gt;wait_resend1 -->
<g id="edge2" class="edge">
<title>wait&#45;&gt;wait_resend1</title>
<path fill="none" stroke="#000000" d="M339.3965,-493.1229C360.6464,-474.0138 394.5412,-443.5337 423.446,-417.541"/>
<polygon fill="#000000" stroke="#000000" points="425.9674,-419.9806 431.0628,-410.6915 421.2867,-414.7756 425.9674,-419.9806"/>
<text text-anchor="middle" x="505.4272" y="-453.5533" font-family="Times,serif" font-size="14.00" fill="#000000">[parity_error=1&#39;b1 / request_resend=1&#39;b1 ]</text>
</g>
<!-- release -->
<g id="node6" class="node">
<title>release</title>
<ellipse fill="none" stroke="#000000" cx="761.61" cy="-37.8374" rx="37.6755" ry="37.6755"/>
<text text-anchor="middle" x="761.61" y="-33.6374" font-family="Times,serif" font-size="14.00" fill="#000000">release</text>
</g>
<!-- wait&#45;&gt;release -->
<g id="edge9" class="edge">
<title>wait&#45;&gt;release</title>
<path fill="none" stroke="#000000" d="M299.5652,-491.54C239.9566,-425.6754 67.3379,-214.9932 177.61,-93.6749 213.3781,-54.3238 579.4544,-42.0165 713.1048,-38.8176"/>
<polygon fill="#000000" stroke="#000000" points="713.5246,-42.3089 723.4405,-38.5774 713.3619,-35.3108 713.5246,-42.3089"/>
<text text-anchor="middle" x="307.0414" y="-275.7141" font-family="Times,serif" font-size="14.00" fill="#000000">[parity_error=1&#39;b0 frame_valid=1&#39;b1 / valid=1&#39;b1]</text>
</g>
<!-- wait_resend1&#45;&gt;wait_resend1 -->
<g id="edge3" class="edge">
<title>wait_resend1&#45;&gt;wait_resend1</title>
<path fill="none" stroke="#000000" d="M538.3563,-384.5441C549.9388,-382.6643 558.1296,-377.4274 558.1296,-368.8337 558.1296,-362.9255 554.2582,-358.604 548.0748,-355.8691"/>
<polygon fill="#000000" stroke="#000000" points="548.9313,-352.4741 538.3563,-353.1232 547.0279,-359.2104 548.9313,-352.4741"/>
<text text-anchor="middle" x="717.5049" y="-364.6337" font-family="Times,serif" font-size="14.00" fill="#000000">[timeout=1&#39;b0 frame_valid=1&#39;b0 / request_resend=1&#39;b0]</text>
</g>
<!-- wait_resend2 -->
<g id="node4" class="node">
<title>wait_resend2</title>
<ellipse fill="none" stroke="#000000" cx="477.61" cy="-190.9945" rx="62.5392" ry="62.5392"/>
<text text-anchor="middle" x="477.61" y="-186.7945" font-family="Times,serif" font-size="14.00" fill="#000000">wait_resend2</text>
</g>
<!-- wait_resend1&#45;&gt;wait_resend2 -->
<g id="edge4" class="edge">
<title>wait_resend1&#45;&gt;wait_resend2</title>
<path fill="none" stroke="#000000" d="M477.61,-306.1342C477.61,-292.4543 477.61,-277.865 477.61,-263.8289"/>
<polygon fill="#000000" stroke="#000000" points="481.1101,-263.7271 477.61,-253.7271 474.1101,-263.7272 481.1101,-263.7271"/>
<text text-anchor="middle" x="638.7353" y="-275.7141" font-family="Times,serif" font-size="14.00" fill="#000000">[timeout=1&#39;b1 frame_valid=1&#39;b0 / request_resend=1&#39;b1 ]</text>
</g>
<!-- wait_resend1&#45;&gt;release -->
<g id="edge7" class="edge">
<title>wait_resend1&#45;&gt;release</title>
<path fill="none" stroke="#000000" d="M539.9476,-360.5214C644.261,-345.2022 846.9811,-308.9272 889.61,-253.5141 933.1996,-196.8521 948.138,-152.5655 907.61,-93.6749 895.9235,-76.6933 846.6886,-60.2021 808.5876,-49.5999"/>
<polygon fill="#000000" stroke="#000000" points="809.2428,-46.151 798.6747,-46.9025 807.4049,-52.9054 809.2428,-46.151"/>
<text text-anchor="middle" x="1083.5947" y="-186.7945" font-family="Times,serif" font-size="14.00" fill="#000000">[frame_valid=1&#39;b1 / valid=1&#39;b1 request_resend=1&#39;b0]</text>
</g>
<!-- wait_resend2&#45;&gt;wait_resend2 -->
<g id="edge5" class="edge">
<title>wait_resend2&#45;&gt;wait_resend2</title>
<path fill="none" stroke="#000000" d="M538.3563,-206.7049C549.9388,-204.825 558.1296,-199.5882 558.1296,-190.9945 558.1296,-185.0863 554.2582,-180.7647 548.0748,-178.0299"/>
<polygon fill="#000000" stroke="#000000" points="548.9313,-174.6349 538.3563,-175.284 547.0279,-181.3712 548.9313,-174.6349"/>
<text text-anchor="middle" x="719.2549" y="-186.7945" font-family="Times,serif" font-size="14.00" fill="#000000">[timeout=1&#39;b0 frame_valid=1&#39;b0 / request_resend=1&#39;b0 ]</text>
</g>
<!-- error -->
<g id="node5" class="node">
<title>error</title>
<ellipse fill="none" stroke="#000000" cx="101.61" cy="-37.8374" rx="29.5936" ry="29.5936"/>
<text text-anchor="middle" x="101.61" y="-33.6374" font-family="Times,serif" font-size="14.00" fill="#000000">error</text>
</g>
<!-- wait_resend2&#45;&gt;error -->
<g id="edge6" class="edge">
<title>wait_resend2&#45;&gt;error</title>
<path fill="none" stroke="#000000" d="M415.7148,-180.3615C356.8506,-168.6504 266.9488,-146.5359 195.6078,-110.4749 172.1445,-98.6147 148.7409,-80.5551 131.1555,-65.4109"/>
<polygon fill="#000000" stroke="#000000" points="133.3286,-62.6612 123.5058,-58.6907 128.7086,-67.9201 133.3286,-62.6612"/>
<text text-anchor="middle" x="387.1111" y="-97.8749" font-family="Times,serif" font-size="14.00" fill="#000000">[timeout=1&#39;b1 frame_valid=1&#39;b0 / request_resend=1&#39;b0 error=1&#39;b1]</text>
</g>
<!-- wait_resend2&#45;&gt;release -->
<g id="edge8" class="edge">
<title>wait_resend2&#45;&gt;release</title>
<path fill="none" stroke="#000000" d="M527.0625,-152.2303C560.4845,-126.1275 599.3009,-96.0381 603.6406,-93.6749 639.1774,-74.3229 682.7381,-59.5149 715.1092,-50.0267"/>
<polygon fill="#000000" stroke="#000000" points="716.1279,-53.3757 724.7749,-47.2537 714.1975,-46.6472 716.1279,-53.3757"/>
<text text-anchor="middle" x="756.5947" y="-97.8749" font-family="Times,serif" font-size="14.00" fill="#000000">[frame_valid=1&#39;b1 / valid=1&#39;b1 request_resend=1&#39;b0]</text>
</g>
<!-- error&#45;&gt;wait -->
<g id="edge10" class="edge">
<title>error&#45;&gt;wait</title>
<path fill="none" stroke="#000000" d="M81.9592,-60.5088C46.4795,-104.3105 -21.9611,-203.7142 7.6622,-288.3141 41.0841,-383.7621 65.0475,-410.6869 149.61,-466.1533 189.7407,-492.4759 244.6666,-503.6988 280.8654,-508.4347"/>
<polygon fill="#000000" stroke="#000000" points="280.6588,-511.935 291.0055,-509.6558 281.4958,-504.9852 280.6588,-511.935"/>
<text text-anchor="middle" x="75.5839" y="-275.7141" font-family="Times,serif" font-size="14.00" fill="#000000">[ack=1&#39;b1 / error=1&#39;b0]</text>
</g>
<!-- release&#45;&gt;wait -->
<g id="edge11" class="edge">
<title>release&#45;&gt;wait</title>
<path fill="none" stroke="#000000" d="M799.4414,-39.0515C902.3691,-43.2278 1183.5119,-60.7399 1239.61,-128.4749 1275.0572,-171.275 1268.7817,-206.2132 1239.61,-253.5141 1147.1859,-403.3768 1053.647,-378.7735 885.61,-431.3533 692.8282,-491.6759 448.9158,-506.9297 356.4548,-510.6565"/>
<polygon fill="#000000" stroke="#000000" points="356.3103,-507.1593 346.451,-511.0379 356.5771,-514.1542 356.3103,-507.1593"/>
<text text-anchor="middle" x="1294.9836" y="-275.7141" font-family="Times,serif" font-size="14.00" fill="#000000">[ack=1&#39;b1 / valid=1&#39;b0]</text>
</g>
</g>
</svg>
