<?xml version="1.0" encoding="UTF-8" standalone="no"?>
<!DOCTYPE svg PUBLIC "-//W3C//DTD SVG 1.1//EN"
 "http://www.w3.org/Graphics/SVG/1.1/DTD/svg11.dtd">
<!-- Generated by graphviz version 2.43.0 (0)
 -->
<!-- Title: uart_parity_even Pages: 1 -->
<svg width="741pt" height="1421pt"
 viewBox="0.00 0.00 741.10 1420.95" xmlns="http://www.w3.org/2000/svg" xmlns:xlink="http://www.w3.org/1999/xlink">
<g id="graph0" class="graph" transform="scale(1 1) rotate(0) translate(4 1416.95)">
<title>uart_parity_even</title>
<polygon fill="white" stroke="transparent" points="-4,4 -4,-1416.95 737.1,-1416.95 737.1,4 -4,4"/>
<!-- reset -->
<g id="node1" class="node">
<title>reset</title>
<ellipse fill="black" stroke="black" cx="293.1" cy="-1411.15" rx="1.8" ry="1.8"/>
</g>
<!-- break -->
<g id="node2" class="node">
<title>break</title>
<ellipse fill="none" stroke="black" cx="293.1" cy="-1306.03" rx="52.15" ry="52.15"/>
<text text-anchor="middle" x="293.1" y="-1325.33" font-family="Times,serif" font-size="14.00">break</text>
<text text-anchor="middle" x="293.1" y="-1294.33" font-family="Times,serif" font-size="14.00">valid=1&#39;b0</text>
<text text-anchor="middle" x="293.1" y="-1279.33" font-family="Times,serif" font-size="14.00">error=1&#39;b0</text>
</g>
<!-- reset&#45;&gt;break -->
<g id="edge1" class="edge">
<title>reset&#45;&gt;break</title>
<path fill="none" stroke="black" d="M293.1,-1408.99C293.1,-1404.51 293.1,-1387.61 293.1,-1368.82"/>
<polygon fill="black" stroke="black" points="296.6,-1368.57 293.1,-1358.57 289.6,-1368.57 296.6,-1368.57"/>
<text text-anchor="middle" x="321.6" y="-1380.15" font-family="Times,serif" font-size="14.00">reset=1&#39;b0</text>
</g>
<!-- idle -->
<g id="node3" class="node">
<title>idle</title>
<ellipse fill="none" stroke="black" cx="293.1" cy="-1150.37" rx="52.15" ry="52.15"/>
<text text-anchor="middle" x="293.1" y="-1169.67" font-family="Times,serif" font-size="14.00">idle</text>
<text text-anchor="middle" x="293.1" y="-1138.67" font-family="Times,serif" font-size="14.00">valid=1&#39;b0</text>
<text text-anchor="middle" x="293.1" y="-1123.67" font-family="Times,serif" font-size="14.00">error=1&#39;b0</text>
</g>
<!-- break&#45;&gt;idle -->
<g id="edge2" class="edge">
<title>break&#45;&gt;idle</title>
<path fill="none" stroke="black" d="M293.1,-1253.43C293.1,-1240.44 293.1,-1226.37 293.1,-1212.94"/>
<polygon fill="black" stroke="black" points="296.6,-1212.83 293.1,-1202.83 289.6,-1212.83 296.6,-1212.83"/>
<text text-anchor="middle" x="325.1" y="-1224.5" font-family="Times,serif" font-size="14.00">signal=1&#39;b1</text>
</g>
<!-- start -->
<g id="node4" class="node">
<title>start</title>
<ellipse fill="none" stroke="black" cx="293.1" cy="-994.72" rx="52.15" ry="52.15"/>
<text text-anchor="middle" x="293.1" y="-1014.02" font-family="Times,serif" font-size="14.00">start</text>
<text text-anchor="middle" x="293.1" y="-983.02" font-family="Times,serif" font-size="14.00">valid=1&#39;b0</text>
<text text-anchor="middle" x="293.1" y="-968.02" font-family="Times,serif" font-size="14.00">error=1&#39;b0</text>
</g>
<!-- idle&#45;&gt;start -->
<g id="edge3" class="edge">
<title>idle&#45;&gt;start</title>
<path fill="none" stroke="black" d="M293.1,-1097.78C293.1,-1084.79 293.1,-1070.72 293.1,-1057.29"/>
<polygon fill="black" stroke="black" points="296.6,-1057.18 293.1,-1047.18 289.6,-1057.18 296.6,-1057.18"/>
<text text-anchor="middle" x="325.1" y="-1068.85" font-family="Times,serif" font-size="14.00">signal=1&#39;b0</text>
</g>
<!-- bit1_even -->
<g id="node5" class="node">
<title>bit1_even</title>
<ellipse fill="none" stroke="black" cx="227.1" cy="-839.07" rx="52.15" ry="52.15"/>
<text text-anchor="middle" x="227.1" y="-858.37" font-family="Times,serif" font-size="14.00">bit1_even</text>
<text text-anchor="middle" x="227.1" y="-827.37" font-family="Times,serif" font-size="14.00">valid=1&#39;b0</text>
<text text-anchor="middle" x="227.1" y="-812.37" font-family="Times,serif" font-size="14.00">error=1&#39;b0</text>
</g>
<!-- start&#45;&gt;bit1_even -->
<g id="edge4" class="edge">
<title>start&#45;&gt;bit1_even</title>
<path fill="none" stroke="black" d="M265.18,-950.2C260.44,-941.83 255.85,-932.98 252.1,-924.4 248.73,-916.65 245.64,-908.31 242.88,-900"/>
<polygon fill="black" stroke="black" points="246.16,-898.76 239.79,-890.29 239.49,-900.88 246.16,-898.76"/>
<text text-anchor="middle" x="284.1" y="-913.2" font-family="Times,serif" font-size="14.00">signal=1&#39;b0</text>
</g>
<!-- bit1_odd -->
<g id="node6" class="node">
<title>bit1_odd</title>
<ellipse fill="none" stroke="black" cx="350.1" cy="-839.07" rx="52.15" ry="52.15"/>
<text text-anchor="middle" x="350.1" y="-858.37" font-family="Times,serif" font-size="14.00">bit1_odd</text>
<text text-anchor="middle" x="350.1" y="-827.37" font-family="Times,serif" font-size="14.00">valid=1&#39;b0</text>
<text text-anchor="middle" x="350.1" y="-812.37" font-family="Times,serif" font-size="14.00">error=1&#39;b0</text>
</g>
<!-- start&#45;&gt;bit1_odd -->
<g id="edge5" class="edge">
<title>start&#45;&gt;bit1_odd</title>
<path fill="none" stroke="black" d="M310.98,-945.53C316.58,-930.44 322.81,-913.63 328.63,-897.95"/>
<polygon fill="black" stroke="black" points="331.99,-898.95 332.19,-888.36 325.43,-896.52 331.99,-898.95"/>
<text text-anchor="middle" x="356.1" y="-913.2" font-family="Times,serif" font-size="14.00">signal=1&#39;b1</text>
</g>
<!-- bit2_even -->
<g id="node7" class="node">
<title>bit2_even</title>
<ellipse fill="none" stroke="black" cx="226.1" cy="-683.42" rx="52.15" ry="52.15"/>
<text text-anchor="middle" x="226.1" y="-702.72" font-family="Times,serif" font-size="14.00">bit2_even</text>
<text text-anchor="middle" x="226.1" y="-671.72" font-family="Times,serif" font-size="14.00">valid=1&#39;b0</text>
<text text-anchor="middle" x="226.1" y="-656.72" font-family="Times,serif" font-size="14.00">error=1&#39;b0</text>
</g>
<!-- bit1_even&#45;&gt;bit2_even -->
<g id="edge6" class="edge">
<title>bit1_even&#45;&gt;bit2_even</title>
<path fill="none" stroke="black" d="M186,-806.5C175.18,-795.81 164.91,-782.95 159.1,-768.74 151.88,-751.06 161.09,-734.05 174.78,-720.01"/>
<polygon fill="black" stroke="black" points="177.4,-722.35 182.28,-712.94 172.6,-717.25 177.4,-722.35"/>
<text text-anchor="middle" x="191.1" y="-757.54" font-family="Times,serif" font-size="14.00">signal=1&#39;b0</text>
</g>
<!-- bit2_odd -->
<g id="node8" class="node">
<title>bit2_odd</title>
<ellipse fill="none" stroke="black" cx="351.1" cy="-683.42" rx="52.15" ry="52.15"/>
<text text-anchor="middle" x="351.1" y="-702.72" font-family="Times,serif" font-size="14.00">bit2_odd</text>
<text text-anchor="middle" x="351.1" y="-671.72" font-family="Times,serif" font-size="14.00">valid=1&#39;b0</text>
<text text-anchor="middle" x="351.1" y="-656.72" font-family="Times,serif" font-size="14.00">error=1&#39;b0</text>
</g>
<!-- bit1_even&#45;&gt;bit2_odd -->
<g id="edge7" class="edge">
<title>bit1_even&#45;&gt;bit2_odd</title>
<path fill="none" stroke="black" d="M230.87,-786.44C233.75,-774.72 238.47,-763.01 246.1,-753.74 258.76,-738.39 270.08,-746.06 287.1,-735.74 292.75,-732.32 298.45,-728.46 304,-724.42"/>
<polygon fill="black" stroke="black" points="306.1,-727.22 312,-718.42 301.9,-721.62 306.1,-727.22"/>
<text text-anchor="middle" x="278.1" y="-757.54" font-family="Times,serif" font-size="14.00">signal=1&#39;b1</text>
</g>
<!-- bit1_odd&#45;&gt;bit2_even -->
<g id="edge8" class="edge">
<title>bit1_odd&#45;&gt;bit2_even</title>
<path fill="none" stroke="black" d="M331.73,-790C325.82,-777.56 318.57,-764.61 310.1,-753.74 306.95,-749.7 291.41,-736.65 274.53,-722.95"/>
<polygon fill="black" stroke="black" points="276.7,-720.2 266.73,-716.64 272.3,-725.65 276.7,-720.2"/>
<text text-anchor="middle" x="353.1" y="-757.54" font-family="Times,serif" font-size="14.00">signal=1&#39;b1</text>
</g>
<!-- bit1_odd&#45;&gt;bit2_odd -->
<g id="edge9" class="edge">
<title>bit1_odd&#45;&gt;bit2_odd</title>
<path fill="none" stroke="black" d="M383.04,-798C388.83,-788.89 393.99,-778.89 397.1,-768.74 401.04,-755.91 397.96,-742.82 391.88,-730.89"/>
<polygon fill="black" stroke="black" points="394.77,-728.89 386.71,-722.02 388.72,-732.42 394.77,-728.89"/>
<text text-anchor="middle" x="431.1" y="-757.54" font-family="Times,serif" font-size="14.00">signal=1&#39;b0</text>
</g>
<!-- bit3_even -->
<g id="node9" class="node">
<title>bit3_even</title>
<ellipse fill="none" stroke="black" cx="259.1" cy="-527.77" rx="52.15" ry="52.15"/>
<text text-anchor="middle" x="259.1" y="-547.07" font-family="Times,serif" font-size="14.00">bit3_even</text>
<text text-anchor="middle" x="259.1" y="-516.07" font-family="Times,serif" font-size="14.00">valid=1&#39;b0</text>
<text text-anchor="middle" x="259.1" y="-501.07" font-family="Times,serif" font-size="14.00">error=1&#39;b0</text>
</g>
<!-- bit2_even&#45;&gt;bit3_even -->
<g id="edge10" class="edge">
<title>bit2_even&#45;&gt;bit3_even</title>
<path fill="none" stroke="black" d="M181.95,-654.5C162.74,-638.69 147.05,-618.12 159.1,-598.09 167.92,-583.44 178.74,-589.38 193.1,-580.09 198.92,-576.33 204.86,-572.19 210.67,-567.94"/>
<polygon fill="black" stroke="black" points="213.16,-570.46 219.08,-561.67 208.97,-564.85 213.16,-570.46"/>
<text text-anchor="middle" x="191.1" y="-601.89" font-family="Times,serif" font-size="14.00">signal=1&#39;b0</text>
</g>
<!-- bit3_odd -->
<g id="node10" class="node">
<title>bit3_odd</title>
<ellipse fill="none" stroke="black" cx="396.1" cy="-527.77" rx="52.15" ry="52.15"/>
<text text-anchor="middle" x="396.1" y="-547.07" font-family="Times,serif" font-size="14.00">bit3_odd</text>
<text text-anchor="middle" x="396.1" y="-516.07" font-family="Times,serif" font-size="14.00">valid=1&#39;b0</text>
<text text-anchor="middle" x="396.1" y="-501.07" font-family="Times,serif" font-size="14.00">error=1&#39;b0</text>
</g>
<!-- bit2_even&#45;&gt;bit3_odd -->
<g id="edge11" class="edge">
<title>bit2_even&#45;&gt;bit3_odd</title>
<path fill="none" stroke="black" d="M226.49,-630.71C228.95,-618.72 233.63,-606.9 242.1,-598.09 266.76,-572.45 287.48,-594.29 320.1,-580.09 328.99,-576.23 337.94,-571.3 346.43,-566.03"/>
<polygon fill="black" stroke="black" points="348.58,-568.81 355.09,-560.45 344.79,-562.93 348.58,-568.81"/>
<text text-anchor="middle" x="274.1" y="-601.89" font-family="Times,serif" font-size="14.00">signal=1&#39;b1</text>
</g>
<!-- bit2_odd&#45;&gt;bit3_even -->
<g id="edge12" class="edge">
<title>bit2_odd&#45;&gt;bit3_even</title>
<path fill="none" stroke="black" d="M330.02,-635.22C324.02,-622.9 317.17,-609.8 310.1,-598.09 306.08,-591.44 301.59,-584.62 296.98,-577.99"/>
<polygon fill="black" stroke="black" points="299.75,-575.85 291.11,-569.71 294.04,-579.89 299.75,-575.85"/>
<text text-anchor="middle" x="350.1" y="-601.89" font-family="Times,serif" font-size="14.00">signal=1&#39;b1</text>
</g>
<!-- bit2_odd&#45;&gt;bit3_odd -->
<g id="edge13" class="edge">
<title>bit2_odd&#45;&gt;bit3_odd</title>
<path fill="none" stroke="black" d="M383.58,-641.89C389.15,-632.89 394.1,-623.05 397.1,-613.09 399.33,-605.7 400.6,-597.78 401.21,-589.85"/>
<polygon fill="black" stroke="black" points="404.71,-590 401.65,-579.85 397.71,-589.69 404.71,-590"/>
<text text-anchor="middle" x="432.1" y="-601.89" font-family="Times,serif" font-size="14.00">signal=1&#39;b0</text>
</g>
<!-- bit4_even -->
<g id="node11" class="node">
<title>bit4_even</title>
<ellipse fill="none" stroke="black" cx="225.1" cy="-372.11" rx="52.15" ry="52.15"/>
<text text-anchor="middle" x="225.1" y="-391.41" font-family="Times,serif" font-size="14.00">bit4_even</text>
<text text-anchor="middle" x="225.1" y="-360.41" font-family="Times,serif" font-size="14.00">valid=1&#39;b0</text>
<text text-anchor="middle" x="225.1" y="-345.41" font-family="Times,serif" font-size="14.00">error=1&#39;b0</text>
</g>
<!-- bit3_even&#45;&gt;bit4_even -->
<g id="edge14" class="edge">
<title>bit3_even&#45;&gt;bit4_even</title>
<path fill="none" stroke="black" d="M219.08,-493.86C210.69,-487.48 201.76,-481.04 193.1,-475.44 178.74,-466.16 167.92,-472.09 159.1,-457.44 148.8,-440.33 158.77,-422.73 173.8,-408.07"/>
<polygon fill="black" stroke="black" points="176.43,-410.41 181.53,-401.12 171.75,-405.21 176.43,-410.41"/>
<text text-anchor="middle" x="191.1" y="-446.24" font-family="Times,serif" font-size="14.00">signal=1&#39;b0</text>
</g>
<!-- bit4_odd -->
<g id="node12" class="node">
<title>bit4_odd</title>
<ellipse fill="none" stroke="black" cx="383.1" cy="-372.11" rx="52.15" ry="52.15"/>
<text text-anchor="middle" x="383.1" y="-391.41" font-family="Times,serif" font-size="14.00">bit4_odd</text>
<text text-anchor="middle" x="383.1" y="-360.41" font-family="Times,serif" font-size="14.00">valid=1&#39;b0</text>
<text text-anchor="middle" x="383.1" y="-345.41" font-family="Times,serif" font-size="14.00">error=1&#39;b0</text>
</g>
<!-- bit3_even&#45;&gt;bit4_odd -->
<g id="edge15" class="edge">
<title>bit3_even&#45;&gt;bit4_odd</title>
<path fill="none" stroke="black" d="M240.37,-478.75C238.38,-466.17 239.19,-453.14 246.1,-442.44 256.69,-426.07 268.59,-433 286.1,-424.44 300,-417.64 314.85,-409.99 328.63,-402.72"/>
<polygon fill="black" stroke="black" points="330.33,-405.78 337.52,-398 327.05,-399.6 330.33,-405.78"/>
<text text-anchor="middle" x="278.1" y="-446.24" font-family="Times,serif" font-size="14.00">signal=1&#39;b1</text>
</g>
<!-- bit3_odd&#45;&gt;bit4_even -->
<g id="edge16" class="edge">
<title>bit3_odd&#45;&gt;bit4_even</title>
<path fill="none" stroke="black" d="M359.98,-489.9C344.87,-474.86 326.93,-457.5 310.1,-442.44 298.58,-432.13 285.81,-421.38 273.75,-411.52"/>
<polygon fill="black" stroke="black" points="275.91,-408.76 265.95,-405.17 271.5,-414.2 275.91,-408.76"/>
<text text-anchor="middle" x="357.1" y="-446.24" font-family="Times,serif" font-size="14.00">signal=1&#39;b1</text>
</g>
<!-- bit3_odd&#45;&gt;bit4_odd -->
<g id="edge17" class="edge">
<title>bit3_odd&#45;&gt;bit4_odd</title>
<path fill="none" stroke="black" d="M398.54,-475.4C398.54,-464.5 398.17,-453.08 397.1,-442.44 396.8,-439.42 396.43,-436.34 396,-433.24"/>
<polygon fill="black" stroke="black" points="399.45,-432.64 394.46,-423.3 392.53,-433.71 399.45,-432.64"/>
<text text-anchor="middle" x="430.1" y="-446.24" font-family="Times,serif" font-size="14.00">signal=1&#39;b0</text>
</g>
<!-- parity_even -->
<g id="node13" class="node">
<title>parity_even</title>
<ellipse fill="none" stroke="black" cx="413.1" cy="-212.22" rx="56.64" ry="56.64"/>
<text text-anchor="middle" x="413.1" y="-231.52" font-family="Times,serif" font-size="14.00">parity_even</text>
<text text-anchor="middle" x="413.1" y="-200.52" font-family="Times,serif" font-size="14.00">valid=1&#39;b0</text>
<text text-anchor="middle" x="413.1" y="-185.52" font-family="Times,serif" font-size="14.00">error=1&#39;b0</text>
</g>
<!-- bit4_even&#45;&gt;parity_even -->
<g id="edge18" class="edge">
<title>bit4_even&#45;&gt;parity_even</title>
<path fill="none" stroke="black" d="M227.48,-319.5C230.09,-307.78 234.57,-296.07 242.1,-286.79 249.59,-277.56 304.89,-254.67 350.61,-236.84"/>
<polygon fill="black" stroke="black" points="352.14,-240 360.2,-233.12 349.61,-233.48 352.14,-240"/>
<text text-anchor="middle" x="274.1" y="-290.59" font-family="Times,serif" font-size="14.00">signal=1&#39;b0</text>
</g>
<!-- parity_odd -->
<g id="node14" class="node">
<title>parity_odd</title>
<ellipse fill="none" stroke="black" cx="206.1" cy="-212.22" rx="53.07" ry="53.07"/>
<text text-anchor="middle" x="206.1" y="-231.52" font-family="Times,serif" font-size="14.00">parity_odd</text>
<text text-anchor="middle" x="206.1" y="-200.52" font-family="Times,serif" font-size="14.00">valid=1&#39;b0</text>
<text text-anchor="middle" x="206.1" y="-185.52" font-family="Times,serif" font-size="14.00">error=1&#39;b0</text>
</g>
<!-- bit4_even&#45;&gt;parity_odd -->
<g id="edge19" class="edge">
<title>bit4_even&#45;&gt;parity_odd</title>
<path fill="none" stroke="black" d="M184.5,-338.63C174.24,-328.08 164.59,-315.52 159.1,-301.79 153.54,-287.87 157.03,-273.29 164.13,-260.07"/>
<polygon fill="black" stroke="black" points="167.34,-261.53 169.55,-251.16 161.36,-257.89 167.34,-261.53"/>
<text text-anchor="middle" x="191.1" y="-290.59" font-family="Times,serif" font-size="14.00">signal=1&#39;b1</text>
</g>
<!-- bit4_odd&#45;&gt;parity_even -->
<g id="edge20" class="edge">
<title>bit4_odd&#45;&gt;parity_even</title>
<path fill="none" stroke="black" d="M393.39,-320.78C394.66,-314.39 395.93,-307.94 397.1,-301.79 398.57,-294.13 400.07,-286.09 401.54,-278.1"/>
<polygon fill="black" stroke="black" points="405.02,-278.53 403.38,-268.06 398.14,-277.27 405.02,-278.53"/>
<text text-anchor="middle" x="432.1" y="-290.59" font-family="Times,serif" font-size="14.00">signal=1&#39;b1</text>
</g>
<!-- bit4_odd&#45;&gt;parity_odd -->
<g id="edge21" class="edge">
<title>bit4_odd&#45;&gt;parity_odd</title>
<path fill="none" stroke="black" d="M351.16,-330.26C339.01,-315.82 324.59,-299.92 310.1,-286.79 294.55,-272.68 276.22,-258.92 259.32,-247.19"/>
<polygon fill="black" stroke="black" points="260.87,-244 250.64,-241.25 256.92,-249.78 260.87,-244"/>
<text text-anchor="middle" x="358.1" y="-290.59" font-family="Times,serif" font-size="14.00">signal=1&#39;b0</text>
</g>
<!-- parity_even&#45;&gt;break -->
<g id="edge23" class="edge">
<title>parity_even&#45;&gt;break</title>
<path fill="none" stroke="black" d="M468.97,-222.18C544.29,-237.8 669.1,-277.77 669.1,-371.11 669.1,-1151.37 669.1,-1151.37 669.1,-1151.37 669.1,-1218.49 461.2,-1270.75 354.59,-1293.14"/>
<polygon fill="black" stroke="black" points="353.68,-1289.75 344.6,-1295.21 355.1,-1296.61 353.68,-1289.75"/>
<text text-anchor="middle" x="701.1" y="-757.54" font-family="Times,serif" font-size="14.00">signal=1&#39;b0</text>
</g>
<!-- stop_even -->
<g id="node15" class="node">
<title>stop_even</title>
<ellipse fill="none" stroke="black" cx="498.1" cy="-52.33" rx="52.15" ry="52.15"/>
<text text-anchor="middle" x="498.1" y="-71.63" font-family="Times,serif" font-size="14.00">stop_even</text>
<text text-anchor="middle" x="498.1" y="-40.63" font-family="Times,serif" font-size="14.00">valid=1&#39;b1</text>
<text text-anchor="middle" x="498.1" y="-25.63" font-family="Times,serif" font-size="14.00">error=1&#39;b0</text>
</g>
<!-- parity_even&#45;&gt;stop_even -->
<g id="edge22" class="edge">
<title>parity_even&#45;&gt;stop_even</title>
<path fill="none" stroke="black" d="M411.03,-155.61C412.36,-144.27 415.09,-132.73 420.1,-122.65 426.47,-109.86 436.31,-98.37 446.89,-88.59"/>
<polygon fill="black" stroke="black" points="449.45,-91 454.68,-81.79 444.85,-85.73 449.45,-91"/>
<text text-anchor="middle" x="452.1" y="-126.45" font-family="Times,serif" font-size="14.00">signal=1&#39;b1</text>
</g>
<!-- parity_odd&#45;&gt;break -->
<g id="edge25" class="edge">
<title>parity_odd&#45;&gt;break</title>
<path fill="none" stroke="black" d="M172.79,-253.99C165.54,-264.25 158.44,-275.56 153.1,-286.79 107.4,-382.88 58.28,-647.92 47.1,-753.74 43.17,-791.02 46.1,-800.59 46.1,-838.07 46.1,-1151.37 46.1,-1151.37 46.1,-1151.37 46.1,-1238.44 158.11,-1277.92 231.27,-1294.42"/>
<polygon fill="black" stroke="black" points="230.81,-1297.9 241.32,-1296.6 232.29,-1291.06 230.81,-1297.9"/>
<text text-anchor="middle" x="79.1" y="-757.54" font-family="Times,serif" font-size="14.00">signal=1&#39;b0</text>
</g>
<!-- stop_odd -->
<g id="node16" class="node">
<title>stop_odd</title>
<ellipse fill="none" stroke="black" cx="125.1" cy="-52.33" rx="52.15" ry="52.15"/>
<text text-anchor="middle" x="125.1" y="-71.63" font-family="Times,serif" font-size="14.00">stop_odd</text>
<text text-anchor="middle" x="125.1" y="-40.63" font-family="Times,serif" font-size="14.00">valid=1&#39;b0</text>
<text text-anchor="middle" x="125.1" y="-25.63" font-family="Times,serif" font-size="14.00">error=1&#39;b1</text>
</g>
<!-- parity_odd&#45;&gt;stop_odd -->
<g id="edge24" class="edge">
<title>parity_odd&#45;&gt;stop_odd</title>
<path fill="none" stroke="black" d="M182.24,-164.7C173.18,-147.04 162.77,-126.75 153.34,-108.37"/>
<polygon fill="black" stroke="black" points="156.34,-106.54 148.66,-99.24 150.11,-109.74 156.34,-106.54"/>
<text text-anchor="middle" x="200.1" y="-126.45" font-family="Times,serif" font-size="14.00">signal=1&#39;b1</text>
</g>
<!-- stop_even&#45;&gt;idle -->
<g id="edge26" class="edge">
<title>stop_even&#45;&gt;idle</title>
<path fill="none" stroke="black" d="M534.46,-90.07C560.18,-120.06 590.1,-164.9 590.1,-211.22 590.1,-995.72 590.1,-995.72 590.1,-995.72 590.1,-1100.43 442.68,-1133.86 355.57,-1144.48"/>
<polygon fill="black" stroke="black" points="355.05,-1141.02 345.52,-1145.64 355.85,-1147.97 355.05,-1141.02"/>
<text text-anchor="middle" x="622.1" y="-601.89" font-family="Times,serif" font-size="14.00">signal=1&#39;b1</text>
</g>
<!-- stop_even&#45;&gt;start -->
<g id="edge28" class="edge">
<title>stop_even&#45;&gt;start</title>
<path fill="none" stroke="black" d="M498.1,-104.88C498.1,-135.73 498.1,-175.72 498.1,-211.22 498.1,-840.07 498.1,-840.07 498.1,-840.07 498.1,-913.21 413.51,-955.79 353,-976.89"/>
<polygon fill="black" stroke="black" points="351.87,-973.58 343.51,-980.09 354.11,-980.21 351.87,-973.58"/>
<text text-anchor="middle" x="530.1" y="-524.07" font-family="Times,serif" font-size="14.00">signal=1&#39;b0</text>
</g>
<!-- stop_odd&#45;&gt;idle -->
<g id="edge27" class="edge">
<title>stop_odd&#45;&gt;idle</title>
<path fill="none" stroke="black" d="M82.08,-82.36C45.93,-110.58 0.1,-157.03 0.1,-211.22 0.1,-528.77 0.1,-528.77 0.1,-528.77 0.1,-637.04 -1.54,-669.65 42.1,-768.74 68.24,-828.08 85.56,-837.16 121.1,-891.4 168.34,-963.47 223.76,-1046.29 258.65,-1098.22"/>
<polygon fill="black" stroke="black" points="255.8,-1100.26 264.29,-1106.6 261.61,-1096.35 255.8,-1100.26"/>
<text text-anchor="middle" x="33.1" y="-601.89" font-family="Times,serif" font-size="14.00">signal=1&#39;b1</text>
</g>
<!-- stop_odd&#45;&gt;start -->
<g id="edge29" class="edge">
<title>stop_odd&#45;&gt;start</title>
<path fill="none" stroke="black" d="M125.1,-104.88C125.1,-135.73 125.1,-175.72 125.1,-211.22 125.1,-840.07 125.1,-840.07 125.1,-840.07 125.1,-901.52 187.07,-945.01 235.74,-969.68"/>
<polygon fill="black" stroke="black" points="234.44,-972.94 244.96,-974.22 237.53,-966.66 234.44,-972.94"/>
<text text-anchor="middle" x="157.1" y="-524.07" font-family="Times,serif" font-size="14.00">signal=1&#39;b0</text>
</g>
</g>
</svg>
